<svg width="14" height="18" viewBox="0 0 14 18" fill="none" xmlns="http://www.w3.org/2000/svg">
<path d="M2.7998 8.34672V5.0275C2.80095 3.95972 3.1972 2.93602 3.90162 2.18098C4.60604 1.42594 5.56112 1.00123 6.55732 1H7.44228C8.43779 1.00366 9.39155 1.42916 10.0955 2.18367C10.7994 2.93818 11.1964 3.96047 11.1998 5.0275V8.35135" stroke="black" stroke-width="1.5" stroke-miterlimit="10"/>
<path d="M12.7374 6.97266H1.2626C0.928062 6.97368 0.607533 7.10172 0.370981 7.32884C0.134428 7.55595 0.00106371 7.86369 0 8.18488V15.5112C0.00106371 15.8324 0.134428 16.1401 0.370981 16.3672C0.607533 16.5943 1.07059 16.9531 2.16863 17.3615C3.26667 17.77 4.52312 17.9997 7 17.9997C9.47688 17.9997 10.8294 17.6423 11.8314 17.3615C12.8333 17.0808 13.3925 16.5943 13.629 16.3672C13.8656 16.1401 13.9989 15.8324 14 15.5112V8.18488C13.9989 7.86369 13.8656 7.55595 13.629 7.32884C13.3925 7.10172 13.0719 6.97368 12.7374 6.97266Z" fill="black"/>
<rect x="6.5332" y="11.1094" width="0.933333" height="2.75676" fill="#D9D9D9"/>
</svg>
