<svg width="72" height="93" viewBox="0 0 72 93" fill="none" xmlns="http://www.w3.org/2000/svg">
<path fill-rule="evenodd" clip-rule="evenodd" d="M7.48399 36.0123H12.5426V23.1643C12.5426 2.78126 37.3906 -7.84375 52.0426 6.81225C56.2379 11.0076 58.8395 16.7928 58.8395 23.1643V36.0123C62.984 36.0123 66.3942 35.4146 69.1875 38.2076C70.543 39.5631 71.3828 41.4342 71.3828 43.4967V84.9306C71.3828 86.9814 70.539 88.8526 69.1797 90.2119L69.1875 90.2197C67.832 91.5752 65.9609 92.415 63.8984 92.415H7.4844C3.3633 92.415 0 89.04 0 84.9306V43.4966C0 39.3716 3.36289 36.0123 7.48399 36.0123ZM32.691 59.7743V68.6454C32.691 72.5946 38.691 72.5946 38.691 68.6454V59.7743C38.691 55.8251 32.691 55.8251 32.691 59.7743ZM18.543 36.0123H52.844L52.8401 23.1643C52.8401 8.10925 34.4651 0.172254 23.5821 11.0553C20.4727 14.1647 18.543 18.4537 18.543 23.1643L18.543 36.0123ZM63.898 42.0123H7.48399C6.6754 42.0123 5.99959 42.688 5.99959 43.4967V84.9306C5.99959 85.7705 6.691 86.4151 7.48399 86.4151H63.898C64.3042 86.4151 64.6753 86.2471 64.9449 85.9776L64.9527 85.9854L65.3863 84.9346L65.3824 43.4966C65.3824 42.6841 64.7066 42.0123 63.898 42.0123Z" fill="black"/>
</svg>
