<svg width="19" height="27" viewBox="0 0 19 27" fill="none" xmlns="http://www.w3.org/2000/svg">
<g clip-path="url(#clip0_40000439_10701)">
<path d="M9.5 0.5C14.4643 0.5 18.4998 4.57404 18.5 9.61035C18.5 11.0287 17.9687 12.4926 17.1406 14.0605C16.3096 15.6341 15.2225 17.2386 14.1416 18.9785V18.9795C12.8584 21.0452 11.5954 22.9797 10.6533 24.3984C10.1824 25.1077 9.79133 25.6874 9.51855 26.0898C9.51288 26.0982 9.50655 26.106 9.50098 26.1143C9.48089 26.0849 9.45987 26.0547 9.43848 26.0234C9.13593 25.5807 8.70422 24.9438 8.18945 24.1699C7.15964 22.6217 5.79711 20.5255 4.46582 18.3301C3.45816 16.6688 2.47599 15.2384 1.72168 13.8018C0.976593 12.3827 0.5 11.0346 0.5 9.61035C0.500194 4.57404 4.5357 0.5 9.5 0.5Z" fill="black" stroke="white"/>
<path d="M13.0888 14H12.2788L11.2088 11.51H7.76883L6.68883 14H5.91883L9.07883 6.6H9.90883L13.0888 14ZM10.9188 10.84L9.49883 7.44L8.04883 10.84H10.9188Z" fill="white"/>
</g>
<defs>
<clipPath id="clip0_40000439_10701">
<rect width="19" height="27" fill="white"/>
</clipPath>
</defs>
</svg>
