<svg width="17" height="24" viewBox="0 0 17 24" fill="none" xmlns="http://www.w3.org/2000/svg">
<g clip-path="url(#clip0_40000415_76)">
<path d="M8.5 0.5C12.9153 0.5 16.5 4.09928 16.5 8.54297C16.5 9.78952 16.0294 11.0808 15.29 12.4717C14.5477 13.868 13.5772 15.2906 12.6084 16.8398C11.4606 18.6754 10.331 20.3945 9.48828 21.6553C9.08238 22.2625 8.74244 22.7626 8.5 23.1182C8.49578 23.112 8.49158 23.1058 8.4873 23.0996C8.21673 22.7062 7.83053 22.1408 7.37012 21.4531C6.44896 20.0773 5.23072 18.2144 4.04004 16.2637C3.13606 14.783 2.26085 13.5163 1.58691 12.2412C0.922207 10.9835 0.500025 9.79547 0.5 8.54297C0.5 4.09928 4.08472 0.5 8.5 0.5Z" fill="black" stroke="white"/>
<path d="M8.56891 12H6.36891V4.6H8.26891C9.81891 4.6 10.6489 5.45 10.6489 6.57C10.6489 7.18 10.4289 7.59 9.83891 8.06C10.6289 8.39 11.0689 9.09 11.0689 9.88C11.0689 10.89 10.4989 12 8.56891 12ZM7.10891 7.79H8.27891C9.69891 7.79 9.90891 6.97 9.90891 6.54C9.90891 5.99 9.58891 5.27 8.21891 5.27H7.10891V7.79ZM7.10891 11.33H8.50891C9.45891 11.33 10.3289 10.95 10.3289 9.88C10.3289 9.04 9.59891 8.46 8.50891 8.46H7.10891V11.33Z" fill="white"/>
</g>
<defs>
<clipPath id="clip0_40000415_76">
<rect width="17" height="24" fill="white"/>
</clipPath>
</defs>
</svg>
