<svg width="17" height="24" viewBox="0 0 17 24" fill="none" xmlns="http://www.w3.org/2000/svg">
<g clip-path="url(#clip0_40000415_85)">
<path d="M8.5 0.5C12.9153 0.5 16.5 4.09928 16.5 8.54297C16.5 9.78952 16.0294 11.0808 15.29 12.4717C14.5477 13.868 13.5772 15.2906 12.6084 16.8398C11.4606 18.6754 10.331 20.3945 9.48828 21.6553C9.08238 22.2625 8.74244 22.7626 8.5 23.1182C8.49578 23.112 8.49158 23.1058 8.4873 23.0996C8.21673 22.7062 7.83053 22.1408 7.37012 21.4531C6.44896 20.0773 5.23072 18.2144 4.04004 16.2637C3.13606 14.783 2.26085 13.5163 1.58691 12.2412C0.922207 10.9835 0.500025 9.79547 0.5 8.54297C0.5 4.09928 4.08472 0.5 8.5 0.5Z" fill="black" stroke="white"/>
<path d="M11.3126 10.06H12.1426C11.4226 11.35 10.1326 12.13 8.73262 12.13C6.62262 12.13 4.86262 10.46 4.86262 8.31C4.86262 6.14 6.59262 4.48 8.72262 4.48C10.0926 4.48 11.5226 5.27 12.1126 6.5H11.2826C10.7126 5.65 9.71262 5.15 8.71262 5.15C7.06262 5.15 5.60262 6.61 5.60262 8.32C5.60262 9.98 7.06262 11.46 8.72262 11.46C9.73262 11.46 10.6426 10.95 11.3126 10.06Z" fill="white"/>
</g>
<defs>
<clipPath id="clip0_40000415_85">
<rect width="17" height="24" fill="white"/>
</clipPath>
</defs>
</svg>
