<svg width="24" height="24" viewBox="0 0 24 24" fill="none" xmlns="http://www.w3.org/2000/svg">
<g clip-path="url(#clip0_pin_offer)">
<!-- Circular background with YSL gold accent -->
<circle cx="12" cy="12" r="11.5" fill="#D4AF37" stroke="#000000" stroke-width="1"/>
<!-- Gift/offer icon -->
<path d="M7 9V7C7 5.89543 7.89543 5 9 5H10C10.5523 5 11 5.44772 11 6C11 6.55228 10.5523 7 10 7H9V9H15V7H14C13.4477 7 13 6.55228 13 6C13 5.44772 13.4477 5 14 5H15C16.1046 5 17 5.89543 17 7V9H19V11H17V18C17 18.5523 16.5523 19 16 19H8C7.44772 19 7 18.5523 7 18V11H5V9H7Z" fill="#000000"/>
<!-- Sparkle accent -->
<path d="M19 6L18.5 5L18 6L17.5 5L18 4L18.5 5L19 4L18.5 5L19 6Z" fill="#000000"/>
<path d="M6 17L5.5 16L5 17L4.5 16L5 15L5.5 16L6 15L5.5 16L6 17Z" fill="#000000"/>
</g>
<defs>
<clipPath id="clip0_pin_offer">
<rect width="24" height="24" fill="white"/>
</clipPath>
</defs>
</svg>