<svg width="28" height="40" viewBox="0 0 28 40" fill="none" xmlns="http://www.w3.org/2000/svg">
<g clip-path="url(#clip0_40000316_32181)">
<path d="M14 0.5C21.4469 0.5 27.5 6.64401 27.5 14.2383C27.5 16.3984 26.6957 18.6089 25.4688 20.9443C24.2387 23.2856 22.626 25.6789 21.04 28.2451C19.1472 31.3083 17.2847 34.1772 15.8955 36.2803C15.2011 37.3315 14.625 38.1914 14.2227 38.7881C14.1424 38.9071 14.0679 39.0148 14.002 39.1123C13.9176 38.9889 13.821 38.8481 13.7139 38.6904C13.2675 38.0338 12.6313 37.0899 11.8721 35.9424C10.3533 33.6469 8.34423 30.5378 6.37988 27.2812C4.905 24.8368 3.4439 22.6968 2.32812 20.5605C1.22148 18.4418 0.500041 16.4043 0.5 14.2383C0.5 6.64401 6.5531 0.5 14 0.5Z" fill="white" stroke="black"/>
<path d="M13.0152 20H10.4232V11.12H13.0512C14.1192 11.12 15.1992 11.384 15.9912 11.9C17.1912 12.692 17.9232 14.108 17.9232 15.608C17.9232 16.712 17.5032 17.78 16.6392 18.668C15.7752 19.568 14.5152 20 13.0152 20ZM11.3112 19.196H12.9432C14.4192 19.196 15.4032 18.812 16.0512 18.128C16.7232 17.408 17.0352 16.484 17.0352 15.56C17.0352 14.408 16.5552 13.4 15.6192 12.68C14.9952 12.2 14.0472 11.924 12.9072 11.924H11.3112V19.196Z" fill="black"/>
</g>
<defs>
<clipPath id="clip0_40000316_32181">
<rect width="28" height="40" fill="white"/>
</clipPath>
</defs>
</svg>
