<svg width="28" height="40" viewBox="0 0 28 40" fill="none" xmlns="http://www.w3.org/2000/svg">
<g clip-path="url(#clip0_40000152_9803)">
<path d="M14 0.5C21.4469 0.5 27.5 6.64401 27.5 14.2383C27.5 16.3984 26.6957 18.6089 25.4688 20.9443C24.2387 23.2856 22.626 25.6789 21.04 28.2451C19.1472 31.3083 17.2847 34.1772 15.8955 36.2803C15.2011 37.3315 14.625 38.1914 14.2227 38.7881C14.1424 38.9071 14.0679 39.0148 14.002 39.1123C13.9176 38.9889 13.821 38.8481 13.7139 38.6904C13.2675 38.0338 12.6313 37.0899 11.8721 35.9424C10.3533 33.6469 8.34423 30.5378 6.37988 27.2812C4.905 24.8368 3.4439 22.6968 2.32812 20.5605C1.22148 18.4418 0.500041 16.4043 0.5 14.2383C0.5 6.64401 6.5531 0.5 14 0.5Z" fill="white" stroke="black"/>
<path d="M18.3066 20H17.3346L16.0506 17.012H11.9226L10.6266 20H9.70259L13.4946 11.12H14.4906L18.3066 20ZM15.7026 16.208L13.9986 12.128L12.2586 16.208H15.7026Z" fill="black"/>
</g>
<defs>
<clipPath id="clip0_40000152_9803">
<rect width="28" height="40" fill="white"/>
</clipPath>
</defs>
</svg>
