<svg width="111" height="28" viewBox="0 0 111 28" fill="none" xmlns="http://www.w3.org/2000/svg">
<path d="M66.1445 9.98985H68.5276L67.6274 6.69021L66.1445 9.98985ZM62.4375 15.5779C62.5434 15.4715 62.8082 15.099 62.9141 14.8861L68.4218 4.02921L70.9108 14.6732C70.9108 14.6732 71.2285 15.4715 71.3344 15.5779H70.0105C69.9046 15.2586 68.5806 10.5753 68.5806 10.5753H65.7738C65.7738 10.5753 63.5496 15.4715 63.4966 15.5779H62.3845H62.4375ZM73.3468 12.4912C73.3468 16.2698 77.8483 16.4294 77.8483 12.2783V4.66786H79.1192C78.8015 4.93396 78.6956 6.05159 78.6426 7.00955C78.6426 7.32887 78.3778 12.0654 78.3778 12.5444C78.0601 17.6535 72.4465 16.9084 72.1818 12.9701C72.1818 12.5444 72.0758 5.99834 72.0229 5.78546C72.0229 5.25326 71.864 4.82752 71.6522 4.66786H73.3468V12.4912ZM80.2314 4.72106C89.7109 3.33735 87.3278 9.88342 84.0444 10.4688C84.0444 10.4688 88.0162 15.3651 88.1751 15.5779L88.0692 5.78546C88.0692 4.98716 87.6984 4.66786 87.6984 4.66786H93.365V5.78546C93.365 5.78546 92.1469 5.20006 89.499 5.20006L89.3931 9.98985H93.365V10.6285H89.3931V14.9925C89.3931 15.3118 89.6579 15.3118 89.8697 15.3118C92.4647 15.3118 94.0534 14.7264 94.0534 14.7264L93.5768 15.7376C93.5768 15.7376 88.5987 15.7376 88.281 15.7376C88.4399 16.0037 89.7638 17.4406 90.6112 17.9728C90.1875 17.8132 88.3869 17.1745 87.7514 16.4294C87.5396 16.2166 82.7733 11.1075 82.4026 10.7349C87.2748 9.8302 85.6331 4.13565 81.979 5.09361L81.4494 15.6311H79.9666C80.0725 15.4715 80.1784 15.099 80.2314 14.7796L80.4962 5.94515C80.4962 5.30651 80.3373 4.98718 80.1784 4.7743M42.2605 15.5779L42.1016 5.5726C42.1016 5.20006 41.8898 4.82753 41.678 4.61465H43.4785L43.3726 14.9393C43.3726 15.0989 43.5315 15.5247 43.6374 15.5779H42.3134M44.8025 4.61465H46.709L53.6465 14.1942V4.61465H62.0138L62.7023 1.42146C62.7552 0.995698 62.7552 0.729573 62.5964 0.463473H64.5558L60.3721 18.026C60.2662 18.4518 60.3192 18.7711 60.9547 18.7711C63.02 18.7711 67.3096 18.3986 69.0043 17.8132L68.2099 19.1969H58.6245C58.7834 18.984 58.8893 18.6115 59.0482 18.1325L61.749 5.51936C60.7428 5.14682 59.4718 5.09361 58.3067 5.09361L57.989 14.62C57.989 14.9925 58.042 15.2586 58.0949 15.4715H56.6121C56.718 15.2054 56.771 14.9925 56.771 14.5667V5.0404H54.8645C54.2819 5.0404 54.3879 5.5726 54.3879 5.8387L53.9112 16.3762L46.0205 6.21125V15.4715H44.9613C45.0672 15.3118 45.2261 14.8329 45.2261 14.4603L45.5439 5.51936L44.7495 4.5082M110.894 4.72106V5.51936C109.835 5.20004 109.093 5.20006 107.928 5.20006L107.558 14.9393C107.558 15.3118 107.558 15.4183 107.664 15.6844H106.287C106.34 15.4183 106.393 15.3118 106.446 14.9393V5.20006H104.433C103.798 5.20006 103.798 5.83868 103.798 6.05156C103.798 6.05156 103.427 16.2166 103.427 16.5891C103.268 16.3762 95.5362 6.42411 95.5362 6.42411V15.6844C95.5362 15.6844 94.7948 15.6844 94.583 15.6844C94.7419 15.3651 94.7419 15.0989 94.7419 14.6732C94.7419 14.6732 95.0596 5.99835 95.0596 5.73226C94.9537 5.62582 94.3711 4.8275 94.2652 4.72106H96.1718L103.109 14.3006V4.72106H111M36.3292 9.93664H38.6064L37.812 6.79665L36.3822 9.93664M36.0644 10.6285L33.2047 16.6955C31.2982 20.6338 26.6908 20.4209 23.6193 17.6003L24.0959 16.0569C28.1737 22.7094 35.0052 17.4939 31.4041 12.8637L26.1083 6.53055C22.5071 2.32618 20.2829 6.79665 22.2953 8.39325L25.261 10.6817C27.4323 12.2251 26.7438 15.5779 23.884 15.844C22.5601 16.0037 21.0773 15.4183 20.177 14.7796L19.9122 15.6311H14.0868C14.1927 15.4183 14.2987 15.0989 14.2987 14.8328V5.14685C14.2987 4.98719 14.1927 4.93397 14.0868 5.14685L8.94988 16.1633L6.6727 6.15801C6.61974 5.89191 6.46088 6.15801 6.46088 6.15801C6.09018 6.69021 4.39551 9.03189 4.13072 9.45765C3.91889 9.77697 3.81296 9.93664 3.65408 10.4688C3.54817 10.7349 1.7476 18.1325 1.64169 18.3986C1.58873 18.6647 1.64168 19.1969 1.80055 19.3565H0C0.052958 19.3565 0.3707 18.984 0.423658 18.6647L1.85353 11.1607C2.17128 9.67053 1.74761 8.18036 1.74761 8.18036C0.847322 2.96481 0.635477 0.676359 0.211813 0.30382H1.69466C1.69466 0.56992 3.49522 8.819 3.60114 9.24475C3.49522 9.40441 9.37357 0.410266 9.37357 0.410266H10.9093C10.9093 0.410266 10.1679 1.15535 10.009 1.31501C9.90313 1.47467 8.04961 3.97599 7.83778 4.29531L9.58539 13.7684L13.3984 4.66786H19.7004V5.67905C19.0119 5.30651 16.6288 4.93396 15.6756 5.0404L15.5696 9.6173C15.5696 9.8834 15.5696 9.8834 15.7815 9.8834H19.7004V10.522H15.5167L15.4108 14.9925C15.4108 15.3118 15.6226 15.3118 15.8344 15.3118C17.4761 15.3651 19.0119 15.1522 20.124 14.6732L20.3888 13.662C21.6598 15.2054 22.666 15.7376 23.99 15.365C25.261 14.9925 26.479 13.2363 24.1488 11.5864L21.8716 9.98985C18.6942 7.59495 21.395 2.43261 25.8435 4.98716C25.8435 0.463473 31.563 -1.77174 35.5878 1.68756L35.2171 3.17771C31.6689 -2.62326 25.1021 2.16651 28.1207 6.31766L32.4103 11.959C33.3636 13.183 33.5224 14.0345 33.5224 14.0345L38.5534 4.34855L41.0425 14.8861C41.1484 15.2054 41.3072 15.5779 41.4661 15.6844H40.0362L38.7123 10.7349H36.0114L36.0644 10.6285Z" fill="black"/>
<path d="M46.063 27.9402H45.0571V24.5337H45.9258C46.6345 24.5337 47.014 24.9249 47.014 25.4405C47.014 25.7213 46.9134 25.9101 46.6437 26.1264C47.0049 26.2783 47.206 26.6006 47.206 26.9642C47.206 27.4292 46.9454 27.9402 46.063 27.9402ZM45.3954 26.0021H45.9304C46.5796 26.0021 46.6757 25.6247 46.6757 25.4267C46.6757 25.1735 46.5294 24.8421 45.903 24.8421H45.3954V26.0021ZM45.3954 27.6317H46.0356C46.4699 27.6317 46.8677 27.4568 46.8677 26.9642C46.8677 26.5776 46.5339 26.3106 46.0356 26.3106H45.3954V27.6317Z" fill="black"/>
<path d="M50.6591 27.9402H48.8073V24.5337H50.6591V24.8421H49.1457V26.0666H50.6088V26.375H49.1457V27.6317H50.6591V27.9402Z" fill="black"/>
<path d="M55.4148 27.9402H55.0444L54.5552 26.7939H52.9823L52.4885 27.9402H52.1365L53.5813 24.5337H53.9608L55.4148 27.9402ZM54.4226 26.4855L53.7733 24.9203L53.1104 26.4855H54.4226Z" fill="black"/>
<path d="M58.8512 26.7065V24.5337H59.1895V26.6926C59.1895 27.5535 58.6911 28 58.0373 28C57.3926 28 56.8851 27.5673 56.8851 26.6834V24.5337H57.2235V26.7018C57.2235 27.3878 57.5892 27.6916 58.0373 27.6916C58.426 27.6916 58.8512 27.4476 58.8512 26.7065Z" fill="black"/>
<path d="M61.8244 27.9402H61.486V24.8421H60.7087V24.5337H62.5971V24.8421H61.8244V27.9402Z" fill="black"/>
<path d="M65.9429 27.9402H64.0912V24.5337H65.9429V24.8421H64.4295V26.0666H65.8926V26.375H64.4295V27.6317H65.9429V27.9402ZM65.692 23.9864L65.0621 24.7563L64.7735 24.6279L65.408 23.8489L65.692 23.9864Z" fill="black"/>
</svg>
