<svg width="74" height="75" viewBox="0 0 74 75" fill="none" xmlns="http://www.w3.org/2000/svg">
<path d="M22.3009 44.5015L7.90287 42.7007L2.30127 48.3023L16.5003 53.7007C15.1995 56.2007 14.3987 58.3999 14.1995 60.2007L14.3987 60.3999C16.2971 60.2007 18.6995 59.2983 21.2971 57.8999L26.5979 71.5989L32.1995 65.9973L30.5003 51.9973C34.3987 49.1965 38.5003 45.7981 42.5003 42.3957L57.0003 75.0007L61.6995 70.3015L58.8987 27.6995C63.1995 23.5003 66.0003 20.6995 66.0003 20.6995C73.8987 12.8011 75.6019 6.39854 72.1019 2.89854L71.9027 2.69932C68.4027 -0.800684 62.0043 0.898517 54.1017 8.80092C54.1017 8.80092 51.4025 11.4025 47.4025 15.6017L5.00047 12.8009L0.30127 17.5001L32.4033 31.8981C28.8017 35.9997 25.3017 40.3981 22.3013 44.5001L22.3009 44.5015Z" fill="black"/>
</svg>
