<svg width="13" height="12" viewBox="0 0 13 12" fill="none" xmlns="http://www.w3.org/2000/svg">
<path d="M4.48633 0.469727C4.5715 0.441156 4.66442 0.443859 4.74805 0.476562L8.40039 1.90625L12.0527 0.681641C12.1089 0.662902 12.1688 0.65684 12.2275 0.665039C12.2865 0.673332 12.3429 0.695793 12.3916 0.729492C12.4403 0.76339 12.4803 0.808265 12.5078 0.860352C12.5352 0.912289 12.5497 0.969777 12.5498 1.02832V9.91309C12.5498 9.9934 12.5232 10.072 12.4736 10.1357C12.4242 10.1994 12.3547 10.2449 12.2764 10.2666L11.6719 10.4336L8.51758 11.5293H8.5166C8.47644 11.5431 8.43413 11.5497 8.3916 11.5498C8.34383 11.5498 8.29634 11.5408 8.25195 11.5234L4.59766 10.0928L0.947266 11.3174L0.948242 11.3184C0.891944 11.3373 0.831361 11.3432 0.772461 11.335C0.713501 11.3267 0.657085 11.3043 0.608398 11.2705C0.559657 11.2367 0.51972 11.1918 0.492188 11.1396C0.46466 11.0875 0.450154 11.0294 0.450195 10.9707V2.08691C0.450198 2.01017 0.474943 1.93529 0.520508 1.87305C0.566101 1.81081 0.630327 1.76398 0.704102 1.73926L4.48633 0.469727ZM5.00586 9.46094L8.0459 10.6514V2.55859L5.00586 1.36816V9.46094ZM8.79785 2.5498V10.6514L11.4336 9.73633H11.4346L11.458 9.72852L11.7988 9.63477V1.54297L8.79785 2.5498ZM1.20117 2.34863V10.4561L4.25391 9.43164V1.32422L1.20117 2.34863Z" fill="black" stroke="black" stroke-width="0.1"/>
</svg>
