<svg width="393" height="48" viewBox="0 0 393 48" fill="none" xmlns="http://www.w3.org/2000/svg">
<rect width="393" height="48" fill="#F8F8F8"/>
<path opacity="0.35" fill-rule="evenodd" clip-rule="evenodd" d="M360.998 20C362.214 20 362.663 20.1061 363.11 20.345C363.512 20.56 363.827 20.8755 364.042 21.2774C364.281 21.7242 364.387 22.1733 364.387 23.3892V28.6108C364.387 29.8267 364.281 30.2758 364.042 30.7226C363.827 31.1245 363.512 31.44 363.11 31.655C362.663 31.8939 362.214 32 360.998 32H343.389C342.173 32 341.724 31.8939 341.277 31.655C340.875 31.44 340.56 31.1245 340.345 30.7226C340.106 30.2758 340 29.8267 340 28.6108V23.3892C340 22.1733 340.106 21.7242 340.345 21.2774C340.56 20.8755 340.875 20.56 341.277 20.345C341.724 20.1061 342.173 20 343.389 20H360.998Z" stroke="black"/>
<path opacity="0.4" d="M366.129 23.6797V28.3248C367.063 27.9314 367.671 27.0162 367.671 26.0023C367.671 24.9883 367.063 24.0731 366.129 23.6797Z" fill="black"/>
<path d="M343.727 21.7422H360.66C361.351 21.7422 361.601 21.8141 361.853 21.949C362.106 22.0839 362.304 22.282 362.439 22.5343C362.574 22.7866 362.645 23.0369 362.645 23.7271V28.2734C362.645 28.9636 362.574 29.2139 362.439 29.4662C362.304 29.7185 362.106 29.9166 361.853 30.0515C361.601 30.1865 361.351 30.2583 360.66 30.2583H343.727C343.037 30.2583 342.787 30.1865 342.534 30.0515C342.282 29.9166 342.084 29.7185 341.949 29.4662C341.814 29.2139 341.742 28.9636 341.742 28.2734V23.7271C341.742 23.0369 341.814 22.7866 341.949 22.5343C342.084 22.282 342.282 22.0839 342.534 21.949C342.787 21.8141 343.037 21.7422 343.727 21.7422Z" fill="black"/>
<path d="M323.5 22.4922C325.967 22.4923 328.339 23.424 330.127 25.0948C330.261 25.2238 330.477 25.2222 330.609 25.0912L331.896 23.8145C331.963 23.748 332.001 23.658 332 23.5644C331.999 23.4707 331.961 23.3811 331.893 23.3155C327.201 18.8948 319.799 18.8948 315.107 23.3155C315.039 23.3811 315.001 23.4706 315 23.5643C314.999 23.6579 315.037 23.748 315.104 23.8145L316.391 25.0912C316.523 25.2224 316.739 25.224 316.873 25.0948C318.661 23.4239 321.034 22.4922 323.5 22.4922ZM323.5 26.6459C324.856 26.6458 326.163 27.141 327.167 28.0353C327.303 28.1622 327.517 28.1595 327.649 28.0291L328.935 26.7524C329.002 26.6854 329.04 26.5946 329.039 26.5002C329.038 26.4058 328.999 26.3157 328.93 26.2501C325.87 23.4526 321.133 23.4526 318.074 26.2501C318.005 26.3157 317.965 26.4058 317.965 26.5003C317.964 26.5947 318.001 26.6855 318.069 26.7524L319.354 28.0291C319.487 28.1595 319.701 28.1622 319.836 28.0353C320.84 27.1416 322.146 26.6464 323.5 26.6459ZM325.97 29.6929C326.039 29.6266 326.077 29.5353 326.075 29.4406C326.073 29.3459 326.032 29.2563 325.96 29.1928C324.54 28.0121 322.461 28.0121 321.041 29.1928C320.969 29.2562 320.928 29.3459 320.926 29.4405C320.924 29.5352 320.961 29.6265 321.03 29.6929L323.254 31.8987C323.319 31.9635 323.408 32 323.5 32C323.593 32 323.682 31.9635 323.747 31.8987L325.97 29.6929Z" fill="black"/>
<path d="M290.118 27.5H291.235C291.853 27.5 292.353 28.0037 292.353 28.625V30.875C292.353 31.4963 291.853 32 291.235 32H290.118C289.5 32 289 31.4963 289 30.875V28.625C289 28.0037 289.5 27.5 290.118 27.5ZM295.333 25.25H296.451C297.068 25.25 297.569 25.7537 297.569 26.375V30.875C297.569 31.4963 297.068 32 296.451 32H295.333C294.716 32 294.216 31.4963 294.216 30.875V26.375C294.216 25.7537 294.716 25.25 295.333 25.25ZM300.549 22.625H301.667C302.284 22.625 302.784 23.1287 302.784 23.75V30.875C302.784 31.4963 302.284 32 301.667 32H300.549C299.932 32 299.431 31.4963 299.431 30.875V23.75C299.431 23.1287 299.932 22.625 300.549 22.625ZM305.765 20H306.882C307.5 20 308 20.5037 308 21.125V30.875C308 31.4963 307.5 32 306.882 32H305.765C305.147 32 304.647 31.4963 304.647 30.875V21.125C304.647 20.5037 305.147 20 305.765 20Z" fill="black"/>
<path d="M20.498 23.7637C20.498 22.748 20.6016 21.9316 20.8086 21.3145C21.0195 20.6934 21.3301 20.2148 21.7402 19.8789C22.1543 19.543 22.6738 19.375 23.2988 19.375C23.7598 19.375 24.1641 19.4688 24.5117 19.6562C24.8594 19.8398 25.1465 20.1074 25.373 20.459C25.5996 20.8066 25.7773 21.2324 25.9062 21.7363C26.0352 22.2363 26.0996 22.9121 26.0996 23.7637C26.0996 24.7715 25.9961 25.5859 25.7891 26.207C25.582 26.8242 25.2715 27.3027 24.8574 27.6426C24.4473 27.9785 23.9277 28.1465 23.2988 28.1465C22.4707 28.1465 21.8203 27.8496 21.3477 27.2559C20.7812 26.541 20.498 25.377 20.498 23.7637ZM21.582 23.7637C21.582 25.1738 21.7461 26.1133 22.0742 26.582C22.4062 27.0469 22.8145 27.2793 23.2988 27.2793C23.7832 27.2793 24.1895 27.0449 24.5176 26.5762C24.8496 26.1074 25.0156 25.1699 25.0156 23.7637C25.0156 22.3496 24.8496 21.4102 24.5176 20.9453C24.1895 20.4805 23.7793 20.248 23.2871 20.248C22.8027 20.248 22.416 20.4531 22.127 20.8633C21.7637 21.3867 21.582 22.3535 21.582 23.7637ZM27.3359 26.0137L28.3496 25.9199C28.4355 26.3965 28.5996 26.7422 28.8418 26.957C29.084 27.1719 29.3945 27.2793 29.7734 27.2793C30.0977 27.2793 30.3809 27.2051 30.623 27.0566C30.8691 26.9082 31.0703 26.7109 31.2266 26.4648C31.3828 26.2148 31.5137 25.8789 31.6191 25.457C31.7246 25.0352 31.7773 24.6055 31.7773 24.168C31.7773 24.1211 31.7754 24.0508 31.7715 23.957C31.5605 24.293 31.2715 24.5664 30.9043 24.7773C30.541 24.9844 30.1465 25.0879 29.7207 25.0879C29.0098 25.0879 28.4082 24.8301 27.916 24.3145C27.4238 23.7988 27.1777 23.1191 27.1777 22.2754C27.1777 21.4043 27.4336 20.7031 27.9453 20.1719C28.4609 19.6406 29.1055 19.375 29.8789 19.375C30.4375 19.375 30.9473 19.5254 31.4082 19.8262C31.873 20.127 32.2246 20.5566 32.4629 21.1152C32.7051 21.6699 32.8262 22.4746 32.8262 23.5293C32.8262 24.627 32.707 25.502 32.4688 26.1543C32.2305 26.8027 31.875 27.2969 31.4023 27.6367C30.9336 27.9766 30.3828 28.1465 29.75 28.1465C29.0781 28.1465 28.5293 27.9609 28.1035 27.5898C27.6777 27.2148 27.4219 26.6895 27.3359 26.0137ZM31.6543 22.2227C31.6543 21.6172 31.4922 21.1367 31.168 20.7812C30.8477 20.4258 30.4609 20.248 30.0078 20.248C29.5391 20.248 29.1309 20.4395 28.7832 20.8223C28.4355 21.2051 28.2617 21.7012 28.2617 22.3105C28.2617 22.8574 28.4258 23.3027 28.7539 23.6465C29.0859 23.9863 29.4941 24.1562 29.9785 24.1562C30.4668 24.1562 30.8672 23.9863 31.1797 23.6465C31.4961 23.3027 31.6543 22.8281 31.6543 22.2227ZM34.4434 22.9785V21.7773H35.6445V22.9785H34.4434ZM34.4434 28V26.7988H35.6445V28H34.4434ZM40.5781 28V25.9434H36.8516V24.9766L40.7715 19.4102H41.6328V24.9766H42.793V25.9434H41.6328V28H40.5781ZM40.5781 24.9766V21.1035L37.8887 24.9766H40.5781ZM43.9473 20.5352V19.5215H49.5078V20.3418C48.9609 20.9238 48.418 21.6973 47.8789 22.6621C47.3438 23.627 46.9297 24.6191 46.6367 25.6387C46.4258 26.3574 46.291 27.1445 46.2324 28H45.1484C45.1602 27.3242 45.293 26.5078 45.5469 25.5508C45.8008 24.5938 46.1641 23.6719 46.6367 22.7852C47.1133 21.8945 47.6191 21.1445 48.1543 20.5352H43.9473Z" fill="black"/>
</svg>
