<svg width="28" height="28" viewBox="0 0 28 28" fill="none" xmlns="http://www.w3.org/2000/svg">
<path d="M5.4152 8.35881H0V19.6076L0.06 19.6676H5.4552L17.5552 26.5892L17.704 26.6204V1.42521L17.6224 1.38281L5.4152 8.35881ZM4.796 18.0292H1.6584L1.5984 17.9692V9.99721H4.7952V18.0292H4.796ZM16.1056 23.8236L6.4312 18.3308L6.4544 9.63801L16.1056 4.16281V23.8236Z" fill="black"/>
<path d="M25.408 14.016L27.3416 12.0176L27.3272 11.9536L26.3112 10.9392L26.2208 10.9016L24.2528 12.8312L22.264 10.9096L22.1344 10.9696L21.1464 11.96L21.1664 12.0832L23.048 13.9904L21.144 15.9592L21.1464 16.0464L22.1648 17.0632L22.2616 17.0784L24.2328 15.1744L26.1984 17.1016L26.3 17.0784L27.3392 16.0464L27.3336 15.9664L25.408 14.016Z" fill="black"/>
</svg>
