<svg width="28" height="28" viewBox="0 0 28 28" fill="none" xmlns="http://www.w3.org/2000/svg">
<path d="M5.4152 8.09319H0V19.342L0.06 19.402H5.4552L17.5552 26.3236L17.704 26.3548V1.15959L17.6224 1.11719L5.4152 8.09319ZM4.796 17.7636H1.6584L1.5984 17.7036V9.73159H4.7952V17.7636H4.796ZM16.1056 23.558L6.4312 18.0652L6.4544 9.37239L16.1056 3.89719V23.558Z" fill="black"/>
<path d="M25.4736 8.09639C25.3296 7.90439 24.34 6.73319 24.1984 6.73319C23.9592 6.94439 23.696 7.20999 23.4784 7.45319C23.408 7.53159 23.1256 7.83719 23.1432 7.90519C23.1616 7.97399 23.6624 8.42199 23.7592 8.53239C26.2904 11.4284 26.4584 15.642 23.9992 18.6436C23.8824 18.7868 23.16 19.49 23.144 19.55C23.132 19.5956 23.144 19.6316 23.1768 19.6636L24.2216 20.7444C24.2816 20.734 24.2896 20.678 24.3152 20.658C24.6952 20.3652 25.2192 19.7148 25.5144 19.3188C28.0112 15.9676 27.9824 11.4316 25.4744 8.09639H25.4736Z" fill="black"/>
<path d="M20.6808 9.96999C20.556 9.96999 19.7288 10.946 19.5904 11.1108C20.7432 12.1948 21.1072 13.806 20.416 15.2612C20.2096 15.6964 19.8968 16.0308 19.5816 16.3852L20.6208 17.5036L20.7328 17.514C20.8048 17.3836 20.948 17.2964 21.0424 17.1876C22.6896 15.2908 22.8488 12.7404 21.356 10.694C21.1656 10.4332 20.952 10.15 20.68 9.96999H20.6808Z" fill="black"/>
</svg>
