<svg width="502" height="89" viewBox="0 0 502 89" fill="none" xmlns="http://www.w3.org/2000/svg">
<path d="M299.14 45.1566H309.918L305.846 30.2414L299.14 45.1566ZM282.375 70.4162C282.854 69.935 284.051 68.2511 284.53 67.2888L309.439 18.213L320.695 66.3265C320.695 66.3265 322.133 69.935 322.612 70.4162H316.624C316.145 68.9728 310.157 47.8028 310.157 47.8028H297.464C297.464 47.8028 287.404 69.935 287.165 70.4162H282.135H282.375ZM331.713 56.4633C331.713 73.5436 352.071 74.2652 352.071 55.501V21.0999H357.819C356.382 22.3027 355.903 27.3547 355.663 31.6849C355.663 33.1283 354.466 54.5387 354.466 56.7038C353.029 79.7983 327.641 76.4303 326.444 58.6283C326.444 56.7038 325.965 27.114 325.725 26.1517C325.725 23.7461 325.007 21.8216 324.049 21.0999H331.713V56.4633ZM362.848 21.3404C405.719 15.0856 394.942 44.6755 380.092 47.3218C380.092 47.3218 398.055 69.4539 398.774 70.4162L398.295 26.1517C398.295 22.5432 396.618 21.0999 396.618 21.0999H422.245V26.1517C422.245 26.1517 416.736 23.5056 404.761 23.5056L404.282 45.1566H422.245V48.0434H404.282V67.77C404.282 69.2134 405.48 69.2133 406.438 69.2133C418.174 69.2133 425.359 66.5672 425.359 66.5672L423.203 71.1378C423.203 71.1378 400.69 71.1378 399.253 71.1378C399.971 72.3407 405.959 78.836 409.791 81.2417C407.875 80.52 399.732 77.6331 396.858 74.2652C395.9 73.3029 374.344 50.2086 372.668 48.5246C394.702 44.435 387.278 18.6942 370.752 23.0244L368.357 70.6567H361.651C362.13 69.935 362.609 68.2511 362.848 66.8077L364.046 26.8736C364.046 23.9868 363.327 22.5433 362.609 21.581M191.124 70.4162L190.405 25.1896C190.405 23.5056 189.448 21.8216 188.489 20.8594H196.633L196.154 67.5293C196.154 68.251 196.872 70.1756 197.351 70.4162H191.363M202.62 20.8594H211.242L242.617 64.1615V20.8594H280.459L283.572 6.42534C283.812 4.5008 283.812 3.29785 283.093 2.09502H291.955L273.034 81.4822C272.555 83.4067 272.795 84.8502 275.669 84.8502C285.009 84.8502 304.409 83.1663 312.073 80.52L308.481 86.7747H265.131C265.849 85.8124 266.328 84.1285 267.047 81.9634L279.261 24.9489C274.711 23.2649 268.963 23.0244 263.694 23.0244L262.257 66.086C262.257 67.77 262.496 68.9727 262.736 69.935H256.029C256.508 68.7322 256.748 67.7699 256.748 65.8453V22.7839H248.126C245.491 22.7839 245.97 25.1896 245.97 26.3924L243.815 74.0247L208.129 28.0764V69.935H203.339C203.818 69.2133 204.536 67.0483 204.536 65.3643L205.973 24.9489L202.381 20.3782M501.521 21.3404V24.9489C496.731 23.5055 493.378 23.5056 488.109 23.5056L486.432 67.5293C486.432 69.2133 486.432 69.6945 486.911 70.8973H480.684C480.924 69.6945 481.163 69.2133 481.402 67.5293V23.5056H472.301C469.427 23.5056 469.427 26.3923 469.427 27.3546C469.427 27.3546 467.751 73.303 467.751 74.987C467.032 74.0247 432.065 29.0386 432.065 29.0386V70.8973C432.065 70.8973 428.712 70.8973 427.754 70.8973C428.472 69.4539 428.472 68.251 428.472 66.3265C428.472 66.3265 429.909 27.1141 429.909 25.9112C429.43 25.4301 426.796 21.8215 426.317 21.3404H434.939L466.314 64.6425V21.3404H502M164.3 44.9161H174.598L171.006 30.7226L164.539 44.9161M163.102 48.0434L150.169 75.468C141.547 93.27 120.71 92.3078 106.819 79.5577L108.974 72.5813C127.416 102.652 158.312 79.0766 142.026 58.1473L118.075 29.5197C101.789 10.5149 91.7299 30.7226 100.831 37.9396L114.243 48.284C124.063 55.2604 120.949 70.4162 108.016 71.619C102.029 72.3407 95.3224 69.6945 91.2509 66.8077L90.0534 70.6567H63.7079C64.187 69.6944 64.666 68.251 64.666 67.0482V23.265C64.666 22.5433 64.187 22.3028 63.7079 23.265L40.476 73.0623L30.1774 27.8357C29.9379 26.6329 29.2195 27.8357 29.2195 27.8357C27.543 30.2414 19.8788 40.8264 18.6813 42.7509C17.7232 44.1943 17.2442 44.9161 16.5257 47.3218C16.0467 48.5246 7.90357 81.9634 7.42456 83.1662C7.18505 84.369 7.42453 86.7747 8.14304 87.4964H0C0.239504 87.4964 1.6765 85.8124 1.916 84.369L8.38263 50.4491C9.81965 43.7132 7.90359 36.9773 7.90359 36.9773C3.83203 13.4017 2.87396 3.05731 0.957927 1.37334H7.66415C7.66415 2.57618 15.8072 39.8641 16.2862 41.7886C15.8072 42.5103 42.3922 1.85451 42.3922 1.85451H49.3377C49.3377 1.85451 45.9846 5.22248 45.2661 5.94418C44.7871 6.66588 36.4045 17.9725 35.4465 19.4159L43.3501 62.2368L60.5944 21.0999H89.0954V25.6707C85.9819 23.9868 75.2041 22.3028 70.8931 22.7839L70.414 43.4726C70.414 44.6754 70.4141 44.6754 71.3721 44.6754H89.0954V47.5623H70.1746L69.6955 67.77C69.6955 69.2134 70.6535 69.2133 71.6115 69.2133C79.0362 69.4539 85.9818 68.4916 91.0114 66.3265L92.2089 61.7558C97.957 68.7323 102.508 71.1378 108.495 69.4538C114.243 67.7699 119.752 59.8312 109.214 52.3736L98.915 45.1566C84.5448 34.3311 96.7595 10.996 116.878 22.5432C116.878 2.09502 142.744 -8.00869 160.947 7.62818L159.27 14.364C143.223 -11.8578 113.525 9.79317 127.176 28.5574L146.576 54.0576C150.887 59.5907 151.606 63.4397 151.606 63.4397L174.359 19.6565L185.615 67.2888C186.094 68.7322 186.813 70.4162 187.531 70.8973H181.065L175.077 48.5246H162.863L163.102 48.0434Z" fill="black"/>
</svg>
