<svg width="273" height="569" viewBox="0 0 273 569" fill="none" xmlns="http://www.w3.org/2000/svg">
<path d="M98.566 557.281C95.1688 557.281 97.8578 546.985 97.8578 546.985L112.846 484.539C175.902 472.371 192.917 422.173 193.522 388.929C194.564 351.464 154.373 314.384 154.373 314.384L181.102 204.297H139.189C144.498 213.69 141.412 222.679 141.412 222.679L128.306 283.098L116.715 269.156C116.715 269.156 125.848 227.251 130.178 207.81C134.508 188.381 142.943 175.614 142.943 175.614L178.522 125.86C208.257 143.078 217.746 165.317 217.746 165.317L225.352 135.114C209.431 120.015 186.485 113.565 186.485 113.565L252.864 19.8959C262.463 5.37852 273 0 273 0H243.726L173.311 109.356C140.772 100.464 109.806 109.822 109.806 109.822L76.5588 0H48.2293C53.8434 2.10188 57.5976 16.2277 57.5976 16.2277L75.0848 86.1715L84.194 120.567C51.2696 142.26 39.4944 172.331 38.5501 201.211C37.623 230.096 55.5708 250.072 55.5708 250.072L84.4531 282.856C84.4531 282.856 76.8007 326.253 73.5244 346.235C70.248 366.217 62.4459 367.622 62.4459 367.622H101.779C95.5316 363.706 99.2743 347.945 99.2743 347.945L107.71 307.203L120.118 320.788L86.86 473.69C27.4025 467.833 8.6716 413.282 8.6716 413.282L0 449.1C36.7651 486.802 84.0615 486.802 84.0615 486.802C84.0615 486.802 71.8833 543 69.7816 553.078C67.6684 563.143 61.5764 569 61.5764 569H245.603L262.929 539.493C189.883 557.287 129.947 557.287 129.947 557.287C129.947 557.287 101.969 557.281 98.566 557.281ZM98.8021 200.906L92.0134 240.939C92.0134 240.939 66.252 216.592 66.252 186.607C66.252 156.634 87.7985 135.333 87.7985 135.333C87.7985 135.333 95.4394 163.74 98.8021 178.412C101.025 188.144 98.8021 200.906 98.8021 200.906ZM166.073 121.449L129.711 176.863L112.852 121.449C112.846 121.449 136.264 109.574 166.073 121.449ZM145.166 349.822C169.511 373.007 168.106 406.487 168.106 406.487C167.179 461.516 116.128 472.285 116.128 472.285L145.166 349.822Z" fill="black"/>
</svg>
