<svg width="502" height="126" viewBox="0 0 502 126" fill="none" xmlns="http://www.w3.org/2000/svg">
<path d="M299.14 44.9543H309.918L305.846 30.1059L299.14 44.9543ZM282.375 70.1007C282.854 69.6217 284.051 67.9453 284.53 66.9874L309.439 18.1315L320.695 66.0294C320.695 66.0294 322.133 69.6217 322.612 70.1007H316.624C316.145 68.6638 310.157 47.5886 310.157 47.5886H297.464C297.464 47.5886 287.404 69.6217 287.165 70.1007H282.135H282.375ZM331.713 56.2103C331.713 73.2141 352.071 73.9325 352.071 55.2523V21.0054H357.819C356.382 22.2028 355.903 27.2321 355.663 31.543C355.663 32.9799 354.466 54.2944 354.466 56.4498C353.029 79.4408 327.641 76.0879 326.444 58.3657C326.444 56.4497 325.965 26.9925 325.725 26.0346C325.725 23.6397 325.007 21.7238 324.049 21.0054H331.713V56.2103ZM362.848 21.2448C405.719 15.0181 394.942 44.4754 380.092 47.1098C380.092 47.1098 398.055 69.1427 398.774 70.1007L398.295 26.0346C398.295 22.4422 396.618 21.0054 396.618 21.0054H422.245V26.0346C422.245 26.0346 416.736 23.4003 404.761 23.4003L404.282 44.9543H422.245V47.8282H404.282V67.4664C404.282 68.9033 405.48 68.9033 406.438 68.9033C418.174 68.9033 425.359 66.2689 425.359 66.2689L423.203 70.8191C423.203 70.8191 400.69 70.8191 399.253 70.8191C399.971 72.0166 405.959 78.4828 409.791 80.8777C407.875 80.1593 399.732 77.2853 396.858 73.9325C395.9 72.9745 374.344 49.9836 372.668 48.3072C394.702 44.2359 387.278 18.6104 370.752 22.9212L368.357 70.3401H361.651C362.13 69.6217 362.609 67.9453 362.848 66.5084L364.046 26.7532C364.046 23.8793 363.327 22.4423 362.609 21.4844M191.124 70.1007L190.405 25.0767C190.405 23.4003 189.447 21.7239 188.489 20.7659H196.633L196.153 67.2268C196.153 67.9453 196.872 69.8612 197.351 70.1007H191.363M202.62 20.7659H211.242L242.617 63.874V20.7659H280.459L283.572 6.39656C283.812 4.48064 283.812 3.28308 283.093 2.08563H291.955L273.034 81.1172C272.555 83.0331 272.795 84.4701 275.669 84.4701C285.009 84.4701 304.409 82.7937 312.073 80.1593L308.481 86.386H265.131C265.849 85.428 266.328 83.7516 267.047 81.5962L279.261 24.8371C274.711 23.1607 268.963 22.9212 263.694 22.9212L262.257 65.7899C262.257 67.4664 262.496 68.6637 262.736 69.6217H256.029C256.508 68.4243 256.748 67.4663 256.748 65.5503V22.6818H248.126C245.491 22.6818 245.97 25.0767 245.97 26.2742L243.815 73.693L208.129 27.9506V69.6217H203.339C203.818 68.9032 204.536 66.7479 204.536 65.0715L205.973 24.8371L202.381 20.2869M501.521 21.2448V24.8371C496.731 23.4002 493.378 23.4003 488.109 23.4003L486.432 67.2268C486.432 68.9032 486.432 69.3823 486.911 70.5797H480.684C480.924 69.3823 481.163 68.9032 481.402 67.2268V23.4003H472.301C469.427 23.4003 469.427 26.2741 469.427 27.232C469.427 27.232 467.751 72.9746 467.751 74.6511C467.032 73.6931 432.065 28.9085 432.065 28.9085V70.5797C432.065 70.5797 428.712 70.5797 427.754 70.5797C428.472 69.1428 428.472 67.9453 428.472 66.0294C428.472 66.0294 429.909 26.9926 429.909 25.7951C429.43 25.3162 426.796 21.7238 426.317 21.2448H434.939L466.314 64.3529V21.2448H502M164.3 44.7149H174.598L171.006 30.5849L164.539 44.7149M163.102 47.8282L150.169 75.1299C141.547 92.8521 120.71 91.8942 106.819 79.2013L108.974 72.2562C127.416 102.192 158.312 78.7224 142.026 57.8868L118.075 29.3875C101.789 10.4678 91.7299 30.5849 100.831 37.7696L114.243 48.0676C124.063 55.0128 120.949 70.1007 108.016 71.2981C102.029 72.0166 95.3224 69.3822 91.2509 66.5084L90.0534 70.3401H63.7079C64.187 69.3822 64.666 67.9452 64.666 66.7478V23.1608C64.666 22.4424 64.187 22.2029 63.7079 23.1608L40.476 72.735L30.1774 27.711C29.9379 26.5136 29.2195 27.711 29.2195 27.711C27.543 30.1059 19.8788 40.6435 18.6813 42.5594C17.7232 43.9963 17.2442 44.7149 16.5257 47.1098C16.0467 48.3072 7.90357 81.5962 7.42456 82.7936C7.18505 83.9911 7.42453 86.3859 8.14304 87.1044H0C0.239504 87.1044 1.6765 85.428 1.916 83.9911L8.38263 50.2231C9.81965 43.5174 7.90359 36.8116 7.90359 36.8116C3.83203 13.3416 2.87396 3.04362 0.957927 1.36719H7.66415C7.66415 2.56464 15.8072 39.6855 16.2862 41.6014C15.8072 42.3199 42.3922 1.8462 42.3922 1.8462H49.3377C49.3377 1.8462 45.9846 5.19908 45.2661 5.91755C44.7871 6.63602 36.4045 17.892 35.4465 19.3289L43.3501 61.958L60.5944 21.0054H89.0954V25.5557C85.9819 23.8793 75.2041 22.2028 70.8931 22.6818L70.414 43.2779C70.414 44.4753 70.4141 44.4753 71.3721 44.4753H89.0954V47.3492H70.1746L69.6955 67.4664C69.6955 68.9033 70.6535 68.9033 71.6115 68.9033C79.0361 69.1427 85.9819 68.1848 91.0114 66.0294L92.209 61.4791C97.957 68.4243 102.508 70.8191 108.495 69.1427C114.243 67.4663 119.752 59.5632 109.214 52.139L98.915 44.9543C84.5448 34.1773 96.7595 10.9467 116.878 22.4422C116.878 2.08563 142.744 -7.97281 160.947 7.594L159.27 14.2997C143.223 -11.8047 113.525 9.74929 127.176 28.4295L146.576 53.8154C150.887 59.3237 151.606 63.1555 151.606 63.1555L174.359 19.5685L185.615 66.9874C186.094 68.4243 186.813 70.1007 187.531 70.5797H181.065L175.077 48.3072H162.863L163.102 47.8282Z" fill="black"/>
<path d="M208.321 125.731H203.772V110.401H207.701C210.906 110.401 212.622 112.162 212.622 114.482C212.622 115.746 212.167 116.595 210.947 117.569C212.581 118.253 213.49 119.703 213.49 121.339C213.49 123.431 212.312 125.731 208.321 125.731ZM205.302 117.01H207.721C210.657 117.01 211.092 115.311 211.092 114.42C211.092 113.281 210.43 111.789 207.597 111.789H205.302V117.01ZM205.302 124.343H208.197C210.161 124.343 211.96 123.556 211.96 121.339C211.96 119.599 210.451 118.398 208.197 118.398H205.302V124.343Z" fill="black"/>
<path d="M229.107 125.731H220.732V110.401H229.107V111.789H222.262V117.3H228.879V118.688H222.262V124.343H229.107V125.731Z" fill="black"/>
<path d="M250.614 125.731H248.94L246.727 120.573H239.614L237.381 125.731H235.788L242.323 110.401H244.039L250.614 125.731ZM246.127 119.185L243.191 112.142L240.193 119.185H246.127Z" fill="black"/>
<path d="M266.156 120.179V110.401H267.686V120.117C267.686 123.991 265.432 126 262.475 126C259.559 126 257.264 124.053 257.264 120.075V110.401H258.794V120.158C258.794 123.245 260.449 124.612 262.475 124.612C264.233 124.612 266.156 123.514 266.156 120.179Z" fill="black"/>
<path d="M279.602 125.731H278.072V111.789H274.557V110.401H283.097V111.789H279.602V125.731Z" fill="black"/>
<path d="M298.228 125.731H289.854V110.401H298.228V111.789H291.384V117.3H298.001V118.688H291.384V124.343H298.228V125.731ZM297.093 107.939L294.245 111.403L292.94 110.826L295.809 107.32L297.093 107.939Z" fill="black"/>
</svg>
