<svg width="274" height="665" viewBox="0 0 274 665" fill="none" xmlns="http://www.w3.org/2000/svg">
<path d="M30.3563 664.334H19.1176V626.414H28.8238C36.7419 626.414 40.9819 630.77 40.9819 636.509C40.9819 639.635 39.858 641.736 36.844 644.144C40.8797 645.835 43.1275 649.422 43.1275 653.47C43.1275 658.646 40.2156 664.334 30.3563 664.334ZM22.8979 642.761H28.8748C36.1288 642.761 37.2016 638.559 37.2016 636.355C37.2016 633.537 35.5669 629.848 28.5683 629.848H22.8979V642.761ZM22.8979 660.901H30.0498C34.9028 660.901 39.3472 658.953 39.3472 653.47C39.3472 649.166 35.618 646.194 30.0498 646.194H22.8979V660.901Z" fill="black"/>
<path d="M81.7076 664.334H61.0183V626.414H81.7076V629.848H64.7986V643.478H81.1457V646.911H64.7986V660.901H81.7076V664.334Z" fill="black"/>
<path d="M134.843 664.334H130.705L125.239 651.574H107.665L102.148 664.334H98.2148L114.358 626.414H118.598L134.843 664.334ZM123.757 648.141L116.503 630.719L109.096 648.141H123.757Z" fill="black"/>
<path d="M173.237 650.601V626.414H177.017V650.447C177.017 660.029 171.449 665 164.144 665C156.941 665 151.271 660.183 151.271 650.345V626.414H155.051V650.55C155.051 658.185 159.138 661.567 164.144 661.567C168.486 661.567 173.237 658.851 173.237 650.601Z" fill="black"/>
<path d="M206.456 664.334H202.676V629.848H193.991V626.414H215.089V629.848H206.456V664.334Z" fill="black"/>
<path d="M252.472 664.334H231.783V626.414H252.472V629.848H235.563V643.478H251.91V646.911H235.563V660.901H252.472V664.334ZM249.669 620.323L242.631 628.893L239.407 627.464L246.495 618.792L249.669 620.323Z" fill="black"/>
<path d="M98.566 557.703C95.1688 557.703 97.8578 547.399 97.8578 547.399L112.846 484.905C175.902 472.728 192.917 422.493 193.522 389.223C194.564 351.73 154.373 314.622 154.373 314.622L181.102 204.452H139.189C144.498 213.851 141.412 222.847 141.412 222.847L128.306 283.312L116.715 269.36C116.715 269.36 125.848 227.423 130.178 207.967C134.508 188.523 142.943 175.747 142.943 175.747L178.522 125.955C208.257 143.186 217.746 165.443 217.746 165.443L225.352 135.216C209.431 120.105 186.485 113.651 186.485 113.651L252.864 19.911C262.463 5.38259 273 0 273 0H243.726L173.311 109.438C140.772 100.54 109.806 109.905 109.806 109.905L76.5588 0H48.2293C53.8434 2.10347 57.5976 16.24 57.5976 16.24L75.0848 86.2367L84.194 120.659C51.2696 142.368 39.4944 172.462 38.5501 201.363C37.623 230.27 55.5708 250.262 55.5708 250.262L84.4531 283.07C84.4531 283.07 76.8007 326.5 73.5244 346.497C70.248 366.494 62.4459 367.9 62.4459 367.9H101.779C95.5316 363.982 99.2743 348.209 99.2743 348.209L107.71 307.436L120.118 321.03L86.86 474.048C27.4025 468.187 8.6716 413.595 8.6716 413.595L0 449.44C36.7651 487.17 84.0615 487.17 84.0615 487.17C84.0615 487.17 71.8833 543.411 69.7816 553.496C67.6684 563.57 61.5764 569.431 61.5764 569.431H245.603L262.929 539.901C189.883 557.709 129.947 557.709 129.947 557.709C129.947 557.709 101.969 557.703 98.566 557.703ZM98.8021 201.058L92.0134 241.122C92.0134 241.122 66.2519 216.756 66.2519 186.748C66.2519 156.752 87.7985 135.435 87.7985 135.435C87.7985 135.435 95.4394 163.864 98.8021 178.547C101.025 188.287 98.8021 201.058 98.8021 201.058ZM166.073 121.54L129.711 176.997L112.852 121.54C112.846 121.54 136.264 109.657 166.073 121.54ZM145.166 350.087C169.511 373.289 168.106 406.795 168.106 406.795C167.179 461.865 116.128 472.642 116.128 472.642L145.166 350.087Z" fill="black"/>
</svg>
