<svg width="393" height="48" viewBox="0 0 393 48" fill="none" xmlns="http://www.w3.org/2000/svg">
<rect width="393" height="48" fill="white"/>
<path d="M18.4812 20.1057H15V27.337L15.0386 27.3756H18.5069L26.2855 31.8252L26.3811 31.8453V15.6484L26.3287 15.6211L18.4812 20.1057ZM18.0831 26.3224H16.0661L16.0275 26.2838V21.1589H18.0826V26.3224H18.0831ZM25.3536 30.0473L19.1343 26.5162L19.1493 20.928L25.3536 17.4082V30.0473Z" fill="black"/>
<path d="M31.3759 20.1077C31.2833 19.9843 30.6471 19.2314 30.5561 19.2314C30.4023 19.3672 30.2331 19.5379 30.0933 19.6942C30.048 19.7446 29.8665 19.9411 29.8778 19.9848C29.8896 20.029 30.2115 20.317 30.2738 20.388C31.901 22.2497 32.009 24.9585 30.4281 26.8881C30.353 26.9801 29.8886 27.4322 29.8783 27.4707C29.8706 27.5001 29.8783 27.5232 29.8994 27.5438L30.571 28.2386C30.6096 28.2319 30.6147 28.1959 30.6312 28.183C30.8755 27.9948 31.2123 27.5767 31.4021 27.3221C33.0072 25.1678 32.9887 22.2518 31.3764 20.1077H31.3759Z" fill="black"/>
<path d="M28.2948 21.3122C28.2146 21.3122 27.6828 21.9396 27.5938 22.0456C28.3349 22.7424 28.5689 23.7782 28.1246 24.7137C27.9919 24.9934 27.7908 25.2084 27.5882 25.4362L28.2562 26.1552L28.3282 26.1619C28.3745 26.0781 28.4666 26.022 28.5273 25.9521C29.5862 24.7327 29.6885 23.0932 28.7289 21.7776C28.6065 21.61 28.4691 21.4279 28.2943 21.3122H28.2948Z" fill="black"/>
<path d="M207.145 19.9898H209.528L208.627 16.6902L207.145 19.9898ZM203.437 25.5779C203.543 25.4715 203.808 25.099 203.914 24.8861L209.422 14.0292L211.911 24.6732C211.911 24.6732 212.229 25.4715 212.334 25.5779H211.01C210.905 25.2586 209.581 20.5753 209.581 20.5753H206.774C206.774 20.5753 204.55 25.4715 204.497 25.5779H203.385H203.437ZM214.347 22.4912C214.347 26.2698 218.848 26.4294 218.848 22.2783V14.6679H220.119C219.801 14.934 219.696 16.0516 219.643 17.0095C219.643 17.3289 219.378 22.0654 219.378 22.5444C219.06 27.6535 213.447 26.9084 213.182 22.9701C213.182 22.5444 213.076 15.9983 213.023 15.7855C213.023 15.2533 212.864 14.8275 212.652 14.6679H214.347V22.4912ZM221.231 14.7211C230.711 13.3373 228.328 19.8834 225.044 20.4688C225.044 20.4688 229.016 25.3651 229.175 25.5779L229.069 15.7855C229.069 14.9872 228.698 14.6679 228.698 14.6679H234.365V15.7855C234.365 15.7855 233.147 15.2001 230.499 15.2001L230.393 19.9898H234.365V20.6285H230.393V24.9925C230.393 25.3118 230.658 25.3118 230.87 25.3118C233.465 25.3118 235.053 24.7264 235.053 24.7264L234.577 25.7376C234.577 25.7376 229.599 25.7376 229.281 25.7376C229.44 26.0037 230.764 27.4406 231.611 27.9728C231.188 27.8132 229.387 27.1745 228.751 26.4294C228.54 26.2166 223.773 21.1075 223.403 20.7349C228.275 19.8302 226.633 14.1357 222.979 15.0936L222.449 25.6311H220.967C221.073 25.4715 221.178 25.099 221.231 24.7796L221.496 15.9451C221.496 15.3065 221.337 14.9872 221.178 14.7743M183.26 25.5779L183.102 15.5726C183.102 15.2001 182.89 14.8275 182.678 14.6147H184.479L184.373 24.9393C184.373 25.0989 184.531 25.5247 184.637 25.5779H183.313M185.802 14.6147H187.709L194.646 24.1942V14.6147H203.014L203.702 11.4215C203.755 10.9957 203.755 10.7296 203.596 10.4635H205.556L201.372 28.026C201.266 28.4518 201.319 28.7711 201.955 28.7711C204.02 28.7711 208.31 28.3986 210.004 27.8132L209.21 29.1969H199.625C199.783 28.984 199.889 28.6115 200.048 28.1325L202.749 15.5194C201.743 15.1468 200.472 15.0936 199.307 15.0936L198.989 24.62C198.989 24.9925 199.042 25.2586 199.095 25.4715H197.612C197.718 25.2054 197.771 24.9925 197.771 24.5667V15.0404H195.864C195.282 15.0404 195.388 15.5726 195.388 15.8387L194.911 26.3762L187.02 16.2112V25.4715H185.961C186.067 25.3118 186.226 24.8329 186.226 24.4603L186.544 15.5194L185.75 14.5082M251.894 14.7211V15.5194C250.835 15.2 250.093 15.2001 248.928 15.2001L248.558 24.9393C248.558 25.3118 248.558 25.4183 248.664 25.6844H247.287C247.34 25.4183 247.393 25.3118 247.446 24.9393V15.2001H245.433C244.798 15.2001 244.798 15.8387 244.798 16.0516C244.798 16.0516 244.427 26.2166 244.427 26.5891C244.268 26.3762 236.536 16.4241 236.536 16.4241V25.6844C236.536 25.6844 235.795 25.6844 235.583 25.6844C235.742 25.3651 235.742 25.0989 235.742 24.6732C235.742 24.6732 236.06 15.9984 236.06 15.7323C235.954 15.6258 235.371 14.8275 235.265 14.7211H237.172L244.109 24.3006V14.7211H252M177.329 19.9366H179.606L178.812 16.7967L177.382 19.9366M177.064 20.6285L174.205 26.6955C172.298 30.6338 167.691 30.4209 164.619 27.6003L165.096 26.0569C169.174 32.7094 176.005 27.4939 172.404 22.8637L167.108 16.5306C163.507 12.3262 161.283 16.7967 163.295 18.3932L166.261 20.6817C168.432 22.2251 167.744 25.5779 164.884 25.844C163.56 26.0037 162.077 25.4183 161.177 24.7796L160.912 25.6311H155.087C155.193 25.4183 155.299 25.0989 155.299 24.8328V15.1468C155.299 14.9872 155.193 14.934 155.087 15.1468L149.95 26.1633L147.673 16.158C147.62 15.8919 147.461 16.158 147.461 16.158C147.09 16.6902 145.396 19.0319 145.131 19.4576C144.919 19.777 144.813 19.9366 144.654 20.4688C144.548 20.7349 142.748 28.1325 142.642 28.3986C142.589 28.6647 142.642 29.1969 142.801 29.3565H141C141.053 29.3565 141.371 28.984 141.424 28.6647L142.854 21.1607C143.171 19.6705 142.748 18.1804 142.748 18.1804C141.847 12.9648 141.635 10.6764 141.212 10.3038H142.695C142.695 10.5699 144.495 18.819 144.601 19.2448C144.495 19.4044 150.374 10.4103 150.374 10.4103H151.909C151.909 10.4103 151.168 11.1554 151.009 11.315C150.903 11.4747 149.05 13.976 148.838 14.2953L150.585 23.7684L154.398 14.6679H160.7V15.679C160.012 15.3065 157.629 14.934 156.676 15.0404L156.57 19.6173C156.57 19.8834 156.57 19.8834 156.781 19.8834H160.7V20.522H156.517L156.411 24.9925C156.411 25.3118 156.623 25.3118 156.834 25.3118C158.476 25.3651 160.012 25.1522 161.124 24.6732L161.389 23.662C162.66 25.2054 163.666 25.7376 164.99 25.365C166.261 24.9925 167.479 23.2363 165.149 21.5864L162.872 19.9898C159.694 17.595 162.395 12.4326 166.843 14.9872C166.843 10.4635 172.563 8.22826 176.588 11.6876L176.217 13.1777C172.669 7.37674 166.102 12.1665 169.121 16.3177L173.41 21.959C174.364 23.183 174.522 24.0345 174.522 24.0345L179.553 14.3486L182.042 24.8861C182.148 25.2054 182.307 25.5779 182.466 25.6844H181.036L179.712 20.7349H177.011L177.064 20.6285Z" fill="black"/>
<path d="M187.063 37.9402H186.057V34.5337H186.926C187.635 34.5337 188.014 34.9249 188.014 35.4405C188.014 35.7213 187.913 35.9101 187.644 36.1264C188.005 36.2783 188.206 36.6006 188.206 36.9642C188.206 37.4292 187.945 37.9402 187.063 37.9402ZM186.395 36.0021H186.93C187.58 36.0021 187.676 35.6247 187.676 35.4267C187.676 35.1735 187.529 34.8421 186.903 34.8421H186.395V36.0021ZM186.395 37.6317H187.036C187.47 37.6317 187.868 37.4568 187.868 36.9642C187.868 36.5776 187.534 36.3106 187.036 36.3106H186.395V37.6317Z" fill="black"/>
<path d="M191.659 37.9402H189.807V34.5337H191.659V34.8421H190.146V36.0666H191.609V36.375H190.146V37.6317H191.659V37.9402Z" fill="black"/>
<path d="M196.415 37.9402H196.044L195.555 36.7939H193.982L193.489 37.9402H193.136L194.581 34.5337H194.961L196.415 37.9402ZM195.423 36.4855L194.773 34.9203L194.11 36.4855H195.423Z" fill="black"/>
<path d="M199.851 36.7065V34.5337H200.19V36.6926C200.19 37.5535 199.691 38 199.037 38C198.393 38 197.885 37.5673 197.885 36.6834V34.5337H198.223V36.7018C198.223 37.3878 198.589 37.6916 199.037 37.6916C199.426 37.6916 199.851 37.4476 199.851 36.7065Z" fill="black"/>
<path d="M202.824 37.9402H202.486V34.8421H201.709V34.5337H203.597V34.8421H202.824V37.9402Z" fill="black"/>
<path d="M206.943 37.9402H205.091V34.5337H206.943V34.8421H205.43V36.0666H206.893V36.375H205.43V37.6317H206.943V37.9402ZM206.692 33.9864L206.062 34.7563L205.774 34.6279L206.408 33.8489L206.692 33.9864Z" fill="black"/>
<path d="M375.364 17.6367L362.636 30.3646M362.636 17.6367L375.364 30.3646" stroke="black" stroke-width="1.4"/>
</svg>
