<svg width="393" height="48" viewBox="0 0 393 48" fill="none" xmlns="http://www.w3.org/2000/svg">
<rect width="393" height="48" fill="white"/>
<path d="M28.5 30.5H14.5V29.5H28.5V30.5Z" fill="black"/>
<path d="M33.5 24.5H14.5V23.5H33.5V24.5Z" fill="black"/>
<path d="M24.5 18.5H14.5V17.5H24.5V18.5Z" fill="black"/>
<rect width="28" height="28" transform="translate(50 10)" fill="white"/>
<path d="M208.145 19.9898H210.528L209.627 16.6902L208.145 19.9898ZM204.437 25.5779C204.543 25.4715 204.808 25.099 204.914 24.8861L210.422 14.0292L212.911 24.6732C212.911 24.6732 213.229 25.4715 213.334 25.5779H212.01C211.905 25.2586 210.581 20.5753 210.581 20.5753H207.774C207.774 20.5753 205.55 25.4715 205.497 25.5779H204.385H204.437ZM215.347 22.4912C215.347 26.2698 219.848 26.4294 219.848 22.2783V14.6679H221.119C220.801 14.934 220.696 16.0516 220.643 17.0095C220.643 17.3289 220.378 22.0654 220.378 22.5444C220.06 27.6535 214.447 26.9084 214.182 22.9701C214.182 22.5444 214.076 15.9983 214.023 15.7855C214.023 15.2533 213.864 14.8275 213.652 14.6679H215.347V22.4912ZM222.231 14.7211C231.711 13.3373 229.328 19.8834 226.044 20.4688C226.044 20.4688 230.016 25.3651 230.175 25.5779L230.069 15.7855C230.069 14.9872 229.698 14.6679 229.698 14.6679H235.365V15.7855C235.365 15.7855 234.147 15.2001 231.499 15.2001L231.393 19.9898H235.365V20.6285H231.393V24.9925C231.393 25.3118 231.658 25.3118 231.87 25.3118C234.465 25.3118 236.053 24.7264 236.053 24.7264L235.577 25.7376C235.577 25.7376 230.599 25.7376 230.281 25.7376C230.44 26.0037 231.764 27.4406 232.611 27.9728C232.188 27.8132 230.387 27.1745 229.751 26.4294C229.54 26.2166 224.773 21.1075 224.403 20.7349C229.275 19.8302 227.633 14.1357 223.979 15.0936L223.449 25.6311H221.967C222.073 25.4715 222.178 25.099 222.231 24.7796L222.496 15.9451C222.496 15.3065 222.337 14.9872 222.178 14.7743M184.26 25.5779L184.102 15.5726C184.102 15.2001 183.89 14.8275 183.678 14.6147H185.479L185.373 24.9393C185.373 25.0989 185.531 25.5247 185.637 25.5779H184.313M186.802 14.6147H188.709L195.646 24.1942V14.6147H204.014L204.702 11.4215C204.755 10.9957 204.755 10.7296 204.596 10.4635H206.556L202.372 28.026C202.266 28.4518 202.319 28.7711 202.955 28.7711C205.02 28.7711 209.31 28.3986 211.004 27.8132L210.21 29.1969H200.625C200.783 28.984 200.889 28.6115 201.048 28.1325L203.749 15.5194C202.743 15.1468 201.472 15.0936 200.307 15.0936L199.989 24.62C199.989 24.9925 200.042 25.2586 200.095 25.4715H198.612C198.718 25.2054 198.771 24.9925 198.771 24.5667V15.0404H196.864C196.282 15.0404 196.388 15.5726 196.388 15.8387L195.911 26.3762L188.02 16.2112V25.4715H186.961C187.067 25.3118 187.226 24.8329 187.226 24.4603L187.544 15.5194L186.75 14.5082M252.894 14.7211V15.5194C251.835 15.2 251.093 15.2001 249.928 15.2001L249.558 24.9393C249.558 25.3118 249.558 25.4183 249.664 25.6844H248.287C248.34 25.4183 248.393 25.3118 248.446 24.9393V15.2001H246.433C245.798 15.2001 245.798 15.8387 245.798 16.0516C245.798 16.0516 245.427 26.2166 245.427 26.5891C245.268 26.3762 237.536 16.4241 237.536 16.4241V25.6844C237.536 25.6844 236.795 25.6844 236.583 25.6844C236.742 25.3651 236.742 25.0989 236.742 24.6732C236.742 24.6732 237.06 15.9984 237.06 15.7323C236.954 15.6258 236.371 14.8275 236.265 14.7211H238.172L245.109 24.3006V14.7211H253M178.329 19.9366H180.606L179.812 16.7967L178.382 19.9366M178.064 20.6285L175.205 26.6955C173.298 30.6338 168.691 30.4209 165.619 27.6003L166.096 26.0569C170.174 32.7094 177.005 27.4939 173.404 22.8637L168.108 16.5306C164.507 12.3262 162.283 16.7967 164.295 18.3932L167.261 20.6817C169.432 22.2251 168.744 25.5779 165.884 25.844C164.56 26.0037 163.077 25.4183 162.177 24.7796L161.912 25.6311H156.087C156.193 25.4183 156.299 25.0989 156.299 24.8328V15.1468C156.299 14.9872 156.193 14.934 156.087 15.1468L150.95 26.1633L148.673 16.158C148.62 15.8919 148.461 16.158 148.461 16.158C148.09 16.6902 146.396 19.0319 146.131 19.4576C145.919 19.777 145.813 19.9366 145.654 20.4688C145.548 20.7349 143.748 28.1325 143.642 28.3986C143.589 28.6647 143.642 29.1969 143.801 29.3565H142C142.053 29.3565 142.371 28.984 142.424 28.6647L143.854 21.1607C144.171 19.6705 143.748 18.1804 143.748 18.1804C142.847 12.9648 142.635 10.6764 142.212 10.3038H143.695C143.695 10.5699 145.495 18.819 145.601 19.2448C145.495 19.4044 151.374 10.4103 151.374 10.4103H152.909C152.909 10.4103 152.168 11.1554 152.009 11.315C151.903 11.4747 150.05 13.976 149.838 14.2953L151.585 23.7684L155.398 14.6679H161.7V15.679C161.012 15.3065 158.629 14.934 157.676 15.0404L157.57 19.6173C157.57 19.8834 157.57 19.8834 157.781 19.8834H161.7V20.522H157.517L157.411 24.9925C157.411 25.3118 157.623 25.3118 157.834 25.3118C159.476 25.3651 161.012 25.1522 162.124 24.6732L162.389 23.662C163.66 25.2054 164.666 25.7376 165.99 25.365C167.261 24.9925 168.479 23.2363 166.149 21.5864L163.872 19.9898C160.694 17.595 163.395 12.4326 167.843 14.9872C167.843 10.4635 173.563 8.22826 177.588 11.6876L177.217 13.1777C173.669 7.37674 167.102 12.1665 170.121 16.3177L174.41 21.959C175.364 23.183 175.522 24.0345 175.522 24.0345L180.553 14.3486L183.042 24.8861C183.148 25.2054 183.307 25.5779 183.466 25.6844H182.036L180.712 20.7349H178.011L178.064 20.6285Z" fill="black"/>
<path d="M188.063 37.9402H187.057V34.5337H187.926C188.635 34.5337 189.014 34.9249 189.014 35.4405C189.014 35.7213 188.913 35.9101 188.644 36.1264C189.005 36.2783 189.206 36.6006 189.206 36.9642C189.206 37.4292 188.945 37.9402 188.063 37.9402ZM187.395 36.0021H187.93C188.58 36.0021 188.676 35.6247 188.676 35.4267C188.676 35.1735 188.529 34.8421 187.903 34.8421H187.395V36.0021ZM187.395 37.6317H188.036C188.47 37.6317 188.868 37.4568 188.868 36.9642C188.868 36.5776 188.534 36.3106 188.036 36.3106H187.395V37.6317Z" fill="black"/>
<path d="M192.659 37.9402H190.807V34.5337H192.659V34.8421H191.146V36.0666H192.609V36.375H191.146V37.6317H192.659V37.9402Z" fill="black"/>
<path d="M197.415 37.9402H197.044L196.555 36.7939H194.982L194.489 37.9402H194.136L195.581 34.5337H195.961L197.415 37.9402ZM196.423 36.4855L195.773 34.9203L195.11 36.4855H196.423Z" fill="black"/>
<path d="M200.851 36.7065V34.5337H201.19V36.6926C201.19 37.5535 200.691 38 200.037 38C199.393 38 198.885 37.5673 198.885 36.6834V34.5337H199.223V36.7018C199.223 37.3878 199.589 37.6916 200.037 37.6916C200.426 37.6916 200.851 37.4476 200.851 36.7065Z" fill="black"/>
<path d="M203.824 37.9402H203.486V34.8421H202.709V34.5337H204.597V34.8421H203.824V37.9402Z" fill="black"/>
<path d="M207.943 37.9402H206.091V34.5337H207.943V34.8421H206.43V36.0666H207.893V36.375H206.43V37.6317H207.943V37.9402ZM207.692 33.9864L207.062 34.7563L206.774 34.6279L207.408 33.8489L207.692 33.9864Z" fill="black"/>
<path d="M325.481 20.1057H322V27.337L322.039 27.3756H325.507L333.285 31.8252L333.381 31.8453V15.6484L333.329 15.6211L325.481 20.1057ZM325.083 26.3224H323.066L323.028 26.2838V21.1589H325.083V26.3224H325.083ZM332.354 30.0473L326.134 26.5162L326.149 20.928L332.354 17.4082V30.0473Z" fill="black"/>
<path d="M338.376 20.1077C338.283 19.9843 337.647 19.2314 337.556 19.2314C337.402 19.3672 337.233 19.5379 337.093 19.6942C337.048 19.7446 336.866 19.9411 336.878 19.9848C336.89 20.029 337.212 20.317 337.274 20.388C338.901 22.2497 339.009 24.9585 337.428 26.8881C337.353 26.9801 336.889 27.4322 336.878 27.4707C336.871 27.5001 336.878 27.5232 336.899 27.5438L337.571 28.2386C337.61 28.2319 337.615 28.1959 337.631 28.183C337.875 27.9948 338.212 27.5767 338.402 27.3221C340.007 25.1678 339.989 22.2518 338.376 20.1077H338.376Z" fill="black"/>
<path d="M335.295 21.3122C335.215 21.3122 334.683 21.9396 334.594 22.0456C335.335 22.7424 335.569 23.7782 335.125 24.7137C334.992 24.9934 334.791 25.2084 334.588 25.4362L335.256 26.1552L335.328 26.1619C335.375 26.0781 335.467 26.022 335.527 25.9521C336.586 24.7327 336.689 23.0932 335.729 21.7776C335.606 21.61 335.469 21.4279 335.294 21.3122H335.295Z" fill="black"/>
<g clip-path="url(#clip0_40000152_9745)">
<path d="M371.236 19.7852V20.7378H375.411V31.0468H362.588V20.7378H366.764V19.7852H361.667V31.9994H376.333V19.7852H371.236Z" fill="black"/>
<path d="M368.497 15.868V26.2368H369.503V15.868L371.819 18.1161L372.53 17.4263L369 14L365.469 17.4263L366.181 18.1161L368.497 15.868Z" fill="black"/>
</g>
<defs>
<clipPath id="clip0_40000152_9745">
<rect width="16" height="18" fill="white" transform="translate(361 14)"/>
</clipPath>
</defs>
</svg>
